<svg xmlns="http://www.w3.org/2000/svg" viewBox="0 0 128 128">
  <defs>
    <radialGradient id="bg" cx="50%" cy="50%" r="50%">
      <stop offset="0%" stop-color="#6ad1ff" stop-opacity="0.55"/>
      <stop offset="55%" stop-color="#2599ff" stop-opacity="0.35"/>
      <stop offset="100%" stop-color="#2599ff" stop-opacity="0"/>
    </radialGradient>
    <radialGradient id="ocean" cx="35%" cy="30%" r="70%">
      <stop offset="0%" stop-color="#7ed7ff"/>
      <stop offset="45%" stop-color="#2aa7ff"/>
      <stop offset="100%" stop-color="#0e57a8"/>
    </radialGradient>
    <linearGradient id="land" x1="0" y1="0" x2="1" y2="1">
      <stop offset="0%" stop-color="#7bf06e"/>
      <stop offset="100%" stop-color="#2bb24b"/>
    </linearGradient>
  </defs>

  <rect width="128" height="128" rx="28" fill="#07142d"/>

  <circle cx="64" cy="64" r="48" fill="url(#bg)"/>
  <circle cx="64" cy="64" r="34" fill="url(#ocean)"/>
  <ellipse cx="50" cy="48" rx="11" ry="8" fill="url(#land)" transform="rotate(-12 50 48)"/>
  <ellipse cx="78" cy="45" rx="8" ry="6" fill="url(#land)" transform="rotate(18 78 45)"/>
  <ellipse cx="80" cy="77" rx="10" ry="7" fill="url(#land)" transform="rotate(-10 80 77)"/>
  <ellipse cx="61" cy="82" rx="7" ry="5" fill="url(#land)" transform="rotate(20 61 82)"/>

  <g fill="#ffffff" opacity="0.72">
    <ellipse cx="44" cy="37" rx="9" ry="3"/>
    <ellipse cx="81" cy="65" rx="8" ry="2.8"/>
    <ellipse cx="62" cy="84" rx="7" ry="2.5"/>
  </g>

  <g fill="#ffffff">
    <circle cx="24" cy="28" r="2"/>
    <circle cx="101" cy="24" r="1.8"/>
    <circle cx="97" cy="98" r="2.2"/>
    <circle cx="28" cy="95" r="1.5"/>
  </g>
</svg>
